<svg width="240" height="240" viewBox="0 0 240 240" fill="none" xmlns="http://www.w3.org/2000/svg">
<path d="M65.5556 190C61.2778 190 57.6157 188.477 54.5694 185.431C51.5231 182.384 50 178.722 50 174.444V65.5556C50 61.2778 51.5231 57.6157 54.5694 54.5694C57.6157 51.5231 61.2778 50 65.5556 50H174.444C178.722 50 182.384 51.5231 185.431 54.5694C188.477 57.6157 190 61.2778 190 65.5556V174.444C190 178.722 188.477 182.384 185.431 185.431C182.384 188.477 178.722 190 174.444 190H65.5556ZM65.5556 174.444H174.444V65.5556H65.5556V174.444ZM73.3333 158.889H166.667L137.5 120L114.167 151.111L96.6667 127.778L73.3333 158.889Z" fill="#E9E8E8"/>
</svg>
